PathFileType	4	(X/Y/Z)	/Users/itak/Documents/Research/Walk-IL/dataset/trc/00202_00008.trc
DataRate	CameraRate	NumFrames	NumMarkers	Units	OrigDataRate	OrigDataStartFrame	OrigNumFrames
100.000000	100.000000	4	53	mm	100.000000	249	498
Frame#	Time	RPSI			LPSI			L3			STRN			T10			C7			CLAV			RBAK			LBAK			LSHO			LUPA			LAEL			LAOL			LWTS			LWPS			LFRA			LIFD			LHPS			LHTS			RSHO			RUPA			RAEL			RAOL			RWTS			RWPS			RFRA			RIFD			RHTS			RHPS			RBHD			LFHD			RFHD			LBHD			LHIP			RHIP			RASI			LASI			LKNE			LTHI			LANK			LTIP			LTOE			LMT1			LMT5			LHEE			RKNE			RTHI			RANK			RTIP			RTOE			RMT1			RMT5			RHEE			
		X1	Y1	Z1	X2	Y2	Z2	X3	Y3	Z3	X4	Y4	Z4	X5	Y5	Z5	X6	Y6	Z6	X7	Y7	Z7	X8	Y8	Z8	X9	Y9	Z9	X10	Y10	Z10	X11	Y11	Z11	X12	Y12	Z12	X13	Y13	Z13	X14	Y14	Z14	X15	Y15	Z15	X16	Y16	Z16	X17	Y17	Z17	X18	Y18	Z18	X19	Y19	Z19	X20	Y20	Z20	X21	Y21	Z21	X22	Y22	Z22	X23	Y23	Z23	X24	Y24	Z24	X25	Y25	Z25	X26	Y26	Z26	X27	Y27	Z27	X28	Y28	Z28	X29	Y29	Z29	X30	Y30	Z30	X31	Y31	Z31	X32	Y32	Z32	X33	Y33	Z33	X34	Y34	Z34	X35	Y35	Z35	X36	Y36	Z36	X37	Y37	Z37	X38	Y38	Z38	X39	Y39	Z39	X40	Y40	Z40	X41	Y41	Z41	X42	Y42	Z42	X43	Y43	Z43	X44	Y44	Z44	X45	Y45	Z45	X46	Y46	Z46	X47	Y47	Z47	X48	Y48	Z48	X49	Y49	Z49	X50	Y50	Z50	X51	Y51	Z51	X52	Y52	Z52	X53	Y53	Z53	

250	2.49	-550.1972045898438	1047.929443359375	-366.7891540527344	-475.9377746582031	1056.728881835938	-466.440185546875	-518.2652587890625	1090.520874023438	-413.5816040039062	-303.4961853027344	1296.140502929688	-263.6856384277344	-539.6783447265625	1250.725463867188	-439.0992736816406	-471.307861328125	1517.31884765625	-411.4744873046875	-315.548095703125	1410.522338867188	-289.2655944824219	-595.6467895507812	1346.757568359375	-362.5238342285156	-418.0154113769531	1491.475463867188	-495.9871826171875	-310.8022155761719	1475.336669921875	-515.2832641601562	-302.7244262695312	1346.695678710938	-599.8512573242188	-307.7507629394531	1130.8134765625	-620.2920532226562	-389.241455078125	1121.91748046875	-585.0674438476562	-270.9066772460938	879.2131958007812	-568.4431762695312	-316.1380615234375	879.8870239257812	-650.0177612304688	-305.0337829589844	1021.638549804688	-639.041748046875	-313.6525268554688	697.2969970703125	-571.2586059570312	-314.4949645996094	807.0797729492188	-646.8727416992188	-266.6127319335938	799.3368530273438	-591.5823364257812	-526.14990234375	1498.30859375	-227.2685089111328	-585.5852661132812	1434.97607421875	-183.9434356689453	-645.3652954101562	1150.8134765625	-144.8820953369141	-586.832763671875	1137.316284179688	-222.9867858886719	-533.6397705078125	923.3242797851562	-63.27290725708008	-620.3728637695312	909.133056640625	-70.52847290039062	-640.2371215820312	1079.51806640625	-111.8722381591797	-513.6115112304688	732.5597534179688	-64.46363830566406	-520.71142578125	830.47998046875	-37.13490676879883	-598.6442260742188	826.7227172851562	-50.84578323364258	-483.2322692871094	1663.621704101562	-321.6051635742188	-280.0329284667969	1737.23779296875	-310.0417175292969	-363.1282958984375	1723.005004882812	-211.4461059570312	-403.2650756835938	1685.738525390625	-430.9428405761719	-321.4263916015625	1007.809448242188	-498.5869140625	-507.0250549316406	994.8292846679688	-174.7467956542969	-409.864013671875	1035.3046875	-168.4725189208984	-257.7828063964844	1039.758666992188	-376.1259155273438	-263.9140319824219	507.6261291503906	-420.9378356933594	-264.5566101074219	651.4572143554688	-454.271728515625	-317.3187866210938	27.84919548034668	-447.8351440429688	-281.1569519042969	276.5523681640625	-444.0939636230469	-157.3797607421875	49.44475173950195	-298.8868103027344	-224.0489044189453	52.69012832641602	-289.3937377929688	-208.1287384033203	26.13786888122559	-414.22021484375	-398.2687377929688	37.36781692504883	-422.2194213867188	-407.0422973632812	497.9701538085938	-138.0493316650391	-440.4837341308594	771.5985107421875	-128.0156097412109	-683.7180786132812	177.7347106933594	-395.5811767578125	-437.3434143066406	385.1536254882812	-182.8198852539062	-544.1785278320312	66.43563079833984	-281.1105041503906	-542.972412109375	77.25993347167969	-345.771484375	-656.6996459960938	111.3863754272461	-304.7829895019531	-657.7955322265625	202.9079132080078	-471.5552673339844	
251	2.5	-542.2133178710938	1048.603393554688	-364.5938720703125	-467.1732482910156	1057.338745117188	-463.70849609375	-509.8277893066406	1091.207641601562	-411.3002319335938	-296.3433532714844	1296.684326171875	-259.1863708496094	-530.6588745117188	1251.62646484375	-437.1674194335938	-462.3130493164062	1518.09765625	-408.528564453125	-308.0158081054688	1411.178588867188	-284.6477966308594	-587.3036499023438	1347.617553710938	-361.1391906738281	-408.2041625976562	1492.375854492188	-492.4876403808594	-300.6765441894531	1476.343139648438	-510.5013122558594	-291.1253967285156	1347.813842773438	-594.9606323242188	-294.5062255859375	1131.8916015625	-615.8182373046875	-376.8836059570312	1122.682495117188	-582.3873901367188	-257.4252014160156	880.5697631835938	-562.7979736328125	-300.9768676757812	880.8285522460938	-645.3629760742188	-290.8100891113281	1022.675048828125	-634.4098510742188	-298.6152038574219	698.3040161132812	-566.4978637695312	-298.8213806152344	808.0740356445312	-642.1439819335938	-251.9790649414062	800.78759765625	-585.8455200195312	-519.20947265625	1499.031982421875	-225.0677032470703	-579.265380859375	1435.80419921875	-182.5478363037109	-640.23974609375	1151.8310546875	-143.9980010986328	-580.5850219726562	1138.162231445312	-221.2424774169922	-528.9188842773438	925.029296875	-59.90958786010742	-615.3521118164062	910.2926025390625	-68.64591979980469	-635.3922119140625	1080.551147460938	-110.7085876464844	-507.6349182128906	734.4720458984375	-59.68704223632812	-515.84228515625	832.4951171875	-32.9803581237793	-593.4629516601562	828.0792236328125	-48.13489532470703	-474.972412109375	1664.328735351562	-318.4199829101562	-271.7989807128906	1737.6591796875	-304.8726806640625	-355.8876647949219	1723.483032226562	-207.1141204833984	-393.89599609375	1686.385131835938	-427.0726928710938	-313.01806640625	1008.028076171875	-494.9931030273438	-500.3998107910156	996.16748046875	-172.0408172607422	-403.1315002441406	1036.251220703125	-165.3497161865234	-249.6933746337891	1040.070434570312	-372.3096618652344	-261.8426818847656	507.3567810058594	-420.8656616210938	-260.7733764648438	651.3134765625	-453.0296325683594	-317.2793273925781	27.82226943969727	-447.8554077148438	-280.2854309082031	276.6091613769531	-444.283935546875	-157.2241516113281	49.35189056396484	-299.0892028808594	-223.8000946044922	52.81391525268555	-289.5459289550781	-208.1167907714844	25.8773021697998	-414.4852905273438	-398.3319702148438	37.45249557495117	-422.2734680175781	-392.0815124511719	500.9447631835938	-129.5279693603516	-431.3597412109375	774.1326904296875	-122.6981735229492	-659.4346923828125	172.1537017822266	-386.4767761230469	-419.7035522460938	387.0980529785156	-173.8385009765625	-517.5391235351562	66.29640960693359	-269.3665161132812	-516.0535888671875	76.65402221679688	-334.2012939453125	-630.9627685546875	108.1038131713867	-294.5040893554688	-633.7463989257812	196.9158782958984	-462.7202758789062	
252	2.51	-534.342041015625	1049.129150390625	-362.2293701171875	-458.6685485839844	1057.839111328125	-460.867919921875	-501.5201416015625	1091.754272460938	-408.880126953125	-289.259521484375	1297.171875	-254.7002868652344	-521.78369140625	1252.376220703125	-435.1271362304688	-453.5104675292969	1518.74365234375	-405.5303649902344	-300.6019287109375	1411.761474609375	-280.0419616699219	-579.0951538085938	1348.328491210938	-359.6459655761719	-398.6033630371094	1493.149169921875	-488.9383850097656	-290.7896728515625	1477.275634765625	-505.7029418945312	-279.7398681640625	1348.845825195312	-590.0135498046875	-281.27197265625	1132.895629882812	-611.1934204101562	-364.4054565429688	1123.280151367188	-579.4513549804688	-243.6216278076172	881.9085693359375	-556.9873657226562	-285.5993957519531	881.6952514648438	-640.4229736328125	-276.5040588378906	1023.647583007812	-629.579345703125	-283.1448974609375	699.2579956054688	-561.3778686523438	-282.8806457519531	808.9999389648438	-637.0894775390625	-237.0212249755859	802.209228515625	-579.8900146484375	-512.3594360351562	1499.635986328125	-222.8165588378906	-572.9991455078125	1436.513793945312	-181.0779266357422	-635.0848388671875	1152.70751953125	-143.0948944091797	-574.3112182617188	1138.890380859375	-219.4547271728516	-524.1393432617188	926.6087646484375	-56.57910919189453	-610.2445068359375	911.306396484375	-66.75740051269531	-630.4954833984375	1081.441772460938	-109.5270919799805	-501.5995788574219	736.2586059570312	-55.03732299804688	-510.8982543945312	834.3632202148438	-28.90904998779297	-588.2061767578125	829.2960205078125	-45.45573425292969	-466.8348999023438	1664.952880859375	-315.1421203613281	-263.693359375	1737.933837890625	-299.5988159179688	-348.7645263671875	1723.777709960938	-202.6793975830078	-384.6783142089844	1686.987670898438	-423.1104736328125	-304.833740234375	1008.129089355469	-491.4088745117188	-493.72265625	997.3834228515625	-169.2173919677734	-396.3634338378906	1037.04443359375	-162.2518157958984	-241.7026672363281	1040.25244140625	-368.5775756835938	-259.91162109375	507.1004333496094	-420.8544921875	-257.1869506835938	651.1206665039062	-451.8541259765625	-317.2403259277344	27.80401802062988	-447.86962890625	-279.4897155761719	276.6922912597656	-444.4999694824219	-157.0810699462891	49.26704788208008	-299.3030395507812	-223.5597991943359	52.94668579101562	-289.6989135742188	-208.0918426513672	25.64240074157715	-414.7238464355469	-398.4094848632812	37.56430435180664	-422.3212280273438	-377.4374389648438	503.9436950683594	-121.1553421020508	-422.339599609375	776.5980224609375	-117.3759841918945	-634.7326049804688	165.7117462158203	-376.7663269042969	-402.2362060546875	388.9887390136719	-164.8246459960938	-490.4445495605469	65.90622711181641	-257.0182189941406	-488.693115234375	75.68883514404297	-322.0298767089844	-604.7960205078125	104.1367721557617	-283.6067504882812	-609.2470703125	190.0538177490234	-453.2809143066406	
253	2.52	-526.58349609375	1049.507202148438	-359.6885070800781	-450.4447937011719	1058.229370117188	-457.9209594726562	-493.3424682617188	1092.158813476562	-406.3137817382812	-282.2334289550781	1297.585205078125	-250.2176208496094	-513.0562744140625	1252.969604492188	-432.9813842773438	-444.8886108398438	1519.252075195312	-402.4773254394531	-293.2947692871094	1412.253173828125	-275.4399108886719	-571.0216674804688	1348.883422851562	-358.0442504882812	-389.1990661621094	1493.785766601562	-485.3395385742188	-281.1263122558594	1478.112548828125	-500.883056640625	-268.55615234375	1349.777465820312	-585.013671875	-268.0616149902344	1133.813110351562	-606.4320068359375	-351.8334655761719	1123.70458984375	-576.2791748046875	-229.5195617675781	883.224609375	-551.005126953125	-270.0262145996094	882.4758911132812	-635.2011108398438	-262.1329345703125	1024.542358398438	-624.5599365234375	-267.2666625976562	700.1692504882812	-555.8678588867188	-266.697265625	809.8466186523438	-631.7019653320312	-221.7600250244141	803.5990600585938	-573.6994018554688	-505.5911254882812	1500.105834960938	-220.5046081542969	-566.7756958007812	1437.085815429688	-179.5242156982422	-629.8947143554688	1153.425537109375	-142.1522369384766	-568.0165405273438	1139.48095703125	-217.609130859375	-519.2913208007812	928.0327758789062	-53.29252624511719	-605.0579833984375	912.1580200195312	-64.85352325439453	-625.5419311523438	1082.170654296875	-108.3125762939453	-495.5173034667969	737.8895263671875	-50.53449249267578	-505.8771362304688	836.0538940429688	-24.94009971618652	-582.884033203125	830.3580322265625	-42.81204986572266	-458.8169250488281	1665.483154296875	-311.7770080566406	-255.7179412841797	1738.061645507812	-294.2301025390625	-341.7549133300781	1723.888671875	-198.1490020751953	-375.6210632324219	1687.533203125	-419.0530090332031	-296.8544006347656	1008.111511230469	-487.8216857910156	-486.9804992675781	998.45849609375	-166.2730712890625	-389.5531921386719	1037.676391601562	-159.1665954589844	-233.8039398193359	1040.291625976562	-364.9141235351562	-258.1062316894531	506.8544921875	-420.8758850097656	-253.7578277587891	650.885986328125	-450.7008056640625	-317.20361328125	27.79402732849121	-447.8779296875	-278.7709350585938	276.7964477539062	-444.7300720214844	-156.9613952636719	49.18304824829102	-299.5264587402344	-223.3380737304688	53.08065032958984	-289.8512268066406	-208.0556488037109	25.43744277954102	-414.9327697753906	-398.4906921386719	37.7049674987793	-422.3575744628906	-363.135498046875	506.9380493164062	-112.9440765380859	-413.4272155761719	778.9760131835938	-112.0513153076172	-609.6403198242188	158.5298614501953	-366.4212951660156	-384.9951171875	390.8243408203125	-155.7770690917969	-463.0452575683594	65.37203979492188	-243.9504089355469	-461.0328979492188	74.44625091552734	-309.1544799804688	-578.302734375	99.65322875976562	-272.0274353027344	-584.2902221679688	182.3824310302734	-443.2132873535156	
